<mxfile host="app.diagrams.net" modified="2022-02-07T19:06:41.744Z" agent="5.0 (Windows NT 10.0; Win64; x64) AppleWebKit/537.36 (KHTML, like Gecko) Chrome/98.0.4758.80 Safari/537.36 Edg/98.0.1108.42" etag="rGCGUCB4arSacbwJHgyT" version="16.5.3" type="github">
  <diagram id="zuxQBQKHK2b0U86znKA3" name="Page-1">
    <mxGraphModel dx="580" dy="324" grid="1" gridSize="10" guides="1" tooltips="1" connect="1" arrows="1" fold="1" page="1" pageScale="1" pageWidth="827" pageHeight="1169" math="0" shadow="0">
      <root>
        <mxCell id="0" />
        <mxCell id="1" parent="0" />
        <mxCell id="K11ZWsOrO8ChlOkrZ7ie-1" value="" style="ellipse;whiteSpace=wrap;html=1;fillColor=#000000;" vertex="1" parent="1">
          <mxGeometry x="440" y="200" width="80" height="80" as="geometry" />
        </mxCell>
        <mxCell id="K11ZWsOrO8ChlOkrZ7ie-2" value="" style="ellipse;whiteSpace=wrap;html=1;fillColor=#000000;" vertex="1" parent="1">
          <mxGeometry x="240" y="360" width="80" height="80" as="geometry" />
        </mxCell>
        <mxCell id="K11ZWsOrO8ChlOkrZ7ie-3" value="" style="ellipse;whiteSpace=wrap;html=1;fillColor=#000000;" vertex="1" parent="1">
          <mxGeometry x="265" y="305" width="30" height="30" as="geometry" />
        </mxCell>
        <mxCell id="K11ZWsOrO8ChlOkrZ7ie-4" value="" style="ellipse;whiteSpace=wrap;html=1;fillColor=#000000;" vertex="1" parent="1">
          <mxGeometry x="465" y="305" width="30" height="30" as="geometry" />
        </mxCell>
        <mxCell id="K11ZWsOrO8ChlOkrZ7ie-7" value="" style="endArrow=none;html=1;rounded=0;exitX=1;exitY=0.5;exitDx=0;exitDy=0;startArrow=none;" edge="1" parent="1" source="K11ZWsOrO8ChlOkrZ7ie-13" target="K11ZWsOrO8ChlOkrZ7ie-4">
          <mxGeometry width="50" height="50" relative="1" as="geometry">
            <mxPoint x="300" y="310" as="sourcePoint" />
            <mxPoint x="460" y="320" as="targetPoint" />
          </mxGeometry>
        </mxCell>
        <mxCell id="K11ZWsOrO8ChlOkrZ7ie-11" value="" style="endArrow=none;html=1;rounded=0;dashed=1;endFill=0;entryX=0.5;entryY=0.5;entryDx=0;entryDy=0;entryPerimeter=0;fillColor=#f8cecc;strokeColor=#b85450;exitX=0.5;exitY=0.5;exitDx=0;exitDy=0;exitPerimeter=0;" edge="1" parent="1" source="K11ZWsOrO8ChlOkrZ7ie-4" target="K11ZWsOrO8ChlOkrZ7ie-2">
          <mxGeometry width="50" height="50" relative="1" as="geometry">
            <mxPoint x="430" y="390" as="sourcePoint" />
            <mxPoint x="480" y="340" as="targetPoint" />
          </mxGeometry>
        </mxCell>
        <mxCell id="K11ZWsOrO8ChlOkrZ7ie-12" value="" style="endArrow=none;html=1;rounded=0;jumpStyle=none;sketch=0;shadow=0;dashed=1;endFill=0;entryX=0.5;entryY=0.5;entryDx=0;entryDy=0;entryPerimeter=0;fillColor=#f8cecc;strokeColor=#b85450;" edge="1" parent="1" target="K11ZWsOrO8ChlOkrZ7ie-1">
          <mxGeometry width="50" height="50" relative="1" as="geometry">
            <mxPoint x="280" y="320" as="sourcePoint" />
            <mxPoint x="380" y="240" as="targetPoint" />
          </mxGeometry>
        </mxCell>
        <mxCell id="K11ZWsOrO8ChlOkrZ7ie-13" value="" style="ellipse;whiteSpace=wrap;html=1;fillColor=#000000;" vertex="1" parent="1">
          <mxGeometry x="375" y="315" width="10" height="10" as="geometry" />
        </mxCell>
        <mxCell id="K11ZWsOrO8ChlOkrZ7ie-14" value="" style="endArrow=none;html=1;rounded=0;exitX=1;exitY=0.5;exitDx=0;exitDy=0;" edge="1" parent="1" source="K11ZWsOrO8ChlOkrZ7ie-3" target="K11ZWsOrO8ChlOkrZ7ie-13">
          <mxGeometry width="50" height="50" relative="1" as="geometry">
            <mxPoint x="294.9999999999992" y="320" as="sourcePoint" />
            <mxPoint x="465.0000000000007" y="320" as="targetPoint" />
          </mxGeometry>
        </mxCell>
        <mxCell id="K11ZWsOrO8ChlOkrZ7ie-17" value="" style="endArrow=none;html=1;shadow=0;sketch=0;jumpStyle=none;strokeColor=default;curved=1;endFill=0;endSize=6;" edge="1" parent="1">
          <mxGeometry width="50" height="50" relative="1" as="geometry">
            <mxPoint x="430" y="340" as="sourcePoint" />
            <mxPoint x="425" y="320" as="targetPoint" />
            <Array as="points">
              <mxPoint x="425" y="330" />
            </Array>
          </mxGeometry>
        </mxCell>
        <mxCell id="K11ZWsOrO8ChlOkrZ7ie-18" value="" style="endArrow=none;html=1;shadow=0;sketch=0;jumpStyle=none;strokeColor=default;curved=1;endFill=0;endSize=6;" edge="1" parent="1">
          <mxGeometry width="50" height="50" relative="1" as="geometry">
            <mxPoint x="335" y="320" as="sourcePoint" />
            <mxPoint x="330" y="300" as="targetPoint" />
            <Array as="points">
              <mxPoint x="335" y="310" />
            </Array>
          </mxGeometry>
        </mxCell>
        <mxCell id="K11ZWsOrO8ChlOkrZ7ie-19" value="φ" style="text;html=1;strokeColor=none;fillColor=none;align=center;verticalAlign=middle;whiteSpace=wrap;rounded=0;" vertex="1" parent="1">
          <mxGeometry x="289" y="296" width="60" height="30" as="geometry" />
        </mxCell>
        <mxCell id="K11ZWsOrO8ChlOkrZ7ie-20" value="φ" style="text;html=1;strokeColor=none;fillColor=none;align=center;verticalAlign=middle;whiteSpace=wrap;rounded=0;" vertex="1" parent="1">
          <mxGeometry x="406" y="311" width="60" height="30" as="geometry" />
        </mxCell>
        <mxCell id="K11ZWsOrO8ChlOkrZ7ie-21" value="l" style="text;html=1;strokeColor=none;fillColor=none;align=center;verticalAlign=middle;whiteSpace=wrap;rounded=0;rotation=-21;" vertex="1" parent="1">
          <mxGeometry x="350" y="256" width="60" height="30" as="geometry" />
        </mxCell>
        <mxCell id="K11ZWsOrO8ChlOkrZ7ie-24" value="" style="endArrow=none;html=1;shadow=0;sketch=0;endSize=6;strokeColor=#82b366;curved=1;jumpStyle=none;fillColor=#d5e8d4;dashed=1;" edge="1" parent="1">
          <mxGeometry width="50" height="50" relative="1" as="geometry">
            <mxPoint x="480" y="320" as="sourcePoint" />
            <mxPoint x="480" y="240" as="targetPoint" />
          </mxGeometry>
        </mxCell>
        <mxCell id="K11ZWsOrO8ChlOkrZ7ie-25" value="" style="endArrow=none;html=1;shadow=0;sketch=0;endSize=6;strokeColor=#82b366;curved=1;jumpStyle=none;exitX=0.5;exitY=0;exitDx=0;exitDy=0;fillColor=#d5e8d4;dashed=1;entryX=0.5;entryY=0.5;entryDx=0;entryDy=0;entryPerimeter=0;" edge="1" parent="1" target="K11ZWsOrO8ChlOkrZ7ie-3">
          <mxGeometry width="50" height="50" relative="1" as="geometry">
            <mxPoint x="279.83000000000004" y="400" as="sourcePoint" />
            <mxPoint x="280" y="320" as="targetPoint" />
          </mxGeometry>
        </mxCell>
        <mxCell id="K11ZWsOrO8ChlOkrZ7ie-27" value="l" style="text;html=1;strokeColor=none;fillColor=none;align=center;verticalAlign=middle;whiteSpace=wrap;rounded=0;rotation=-21;" vertex="1" parent="1">
          <mxGeometry x="350" y="335" width="60" height="30" as="geometry" />
        </mxCell>
        <mxCell id="K11ZWsOrO8ChlOkrZ7ie-28" value="" style="endArrow=classic;startArrow=classic;html=1;shadow=0;sketch=0;endSize=6;strokeColor=default;curved=1;jumpStyle=none;" edge="1" parent="1">
          <mxGeometry width="50" height="50" relative="1" as="geometry">
            <mxPoint x="385" y="390" as="sourcePoint" />
            <mxPoint x="480" y="390" as="targetPoint" />
          </mxGeometry>
        </mxCell>
        <mxCell id="K11ZWsOrO8ChlOkrZ7ie-29" value="d" style="text;html=1;align=center;verticalAlign=middle;resizable=0;points=[];autosize=1;strokeColor=none;fillColor=none;" vertex="1" parent="1">
          <mxGeometry x="426" y="390" width="20" height="20" as="geometry" />
        </mxCell>
        <mxCell id="K11ZWsOrO8ChlOkrZ7ie-31" value="b +½s" style="text;html=1;align=center;verticalAlign=middle;resizable=0;points=[];autosize=1;strokeColor=none;fillColor=none;fontColor=#97D077;labelBackgroundColor=none;" vertex="1" parent="1">
          <mxGeometry x="495" y="280" width="50" height="20" as="geometry" />
        </mxCell>
        <mxCell id="K11ZWsOrO8ChlOkrZ7ie-32" value="b +½s" style="text;html=1;align=center;verticalAlign=middle;resizable=0;points=[];autosize=1;strokeColor=none;fillColor=none;fontColor=#97D077;labelBackgroundColor=none;" vertex="1" parent="1">
          <mxGeometry x="215" y="341" width="50" height="20" as="geometry" />
        </mxCell>
      </root>
    </mxGraphModel>
  </diagram>
</mxfile>
